<?xml version="1.0"?>
<svg width="1280" height="1280" xmlns="http://www.w3.org/2000/svg" xmlns:svg="http://www.w3.org/2000/svg" preserveAspectRatio="xMidYMid meet">
 <metadata>LibreBlog.org</metadata>
 <g class="layer">
  <title>Layer 1</title>
  <g fill="#000000" id="svg_1" transform="translate(0 1280) scale(0.1 -0.1)">
   <path d="m7333.330374,12403.590353c-158.949927,-38.920365 -232.711004,-75.61671 -382.310935,-195.713837c-146.483266,-116.761096 -341.794287,-326.931068 -538.144196,-577.133416c-97.65551,-125.657179 -883.055148,-1126.466572 -1745.332528,-2224.020872l-1566.643721,-1996.058733l-520.483093,-123.433158c-285.694313,-67.832637 -864.355157,-204.60992 -1284.066074,-303.578849c-419.710917,-98.968929 -785.399637,-187.929764 -811.371848,-196.825847c-203.622128,-70.056657 -290.888755,-417.003914 -260.760991,-1035.281716c33.244429,-672.766314 169.338811,-1437.829494 360.494278,-2027.195025c108.044395,-329.155089 239.983223,-562.677281 365.68872,-641.630022c100.772176,-62.272584 42.594425,-62.272584 1317.310503,-1.11201l1167.710572,56.712532l1530.282627,-1088.658217c1405.616018,-1000.809392 1537.554846,-1096.44229 1621.704807,-1185.403125c205.699905,-217.954045 418.672029,-320.259006 666.966359,-320.259006c331.405403,1.11201 636.838595,227.962139 903.832916,672.766314c491.394218,816.21566 856.044049,2461.991105 976.555105,4408.009368c36.361094,578.245427 38.438871,1590.174924 5.194442,2241.813039c-115.316613,2281.845415 -513.210874,3831.987963 -1113.688375,4346.848794c-97.65551,83.400783 -191.155467,139.001305 -294.00542,173.473628c-94.538845,32.248303 -300.23875,41.144386 -398.933149,16.680157z" id="svg_2"/>
   <path d="m10594.40109,11331.612293c280.499871,-353.619319 489.316441,-695.006523 700.210788,-1146.48276c434.255355,-931.864745 692.938569,-2030.531056 764.621869,-3247.070473c13.505549,-234.634202 13.505549,-930.752735 0,-1162.050906c-103.888841,-1766.984583 -613.98305,-3326.023214 -1421.199344,-4344.624774c-46.749978,-60.048564 -82.072184,-108.977023 -77.916631,-108.977023c15.583326,0 208.81657,116.761096 297.122085,180.145691c919.416242,656.086157 1586.382601,2050.547244 1799.354725,3756.371253c98.694399,793.975451 83.111073,1691.367873 -42.594425,2485.343324c-253.488772,1602.407038 -919.416242,2891.227134 -1806.626944,3493.93679c-68.566635,45.592428 -204.661017,126.76919 -249.333218,146.785378c-5.194442,2.224021 11.427773,-21.128198 36.361094,-53.376501z" id="svg_3"/>
   <path d="m9387.212759,10611.02953c261.799879,-320.259006 541.260861,-822.887723 732.416329,-1315.508346c538.144196,-1391.125055 663.849694,-3149.213555 338.677621,-4726.044353c-199.466575,-969.6731 -581.777509,-1859.281449 -1052.393959,-2451.983011c-90.383292,-113.425064 -90.383292,-113.425064 9.349996,-56.712532c301.277639,173.473628 574.50529,432.57206 818.644067,777.295295c435.294243,611.60574 747.999655,1470.077796 884.094036,2420.846719c118.433279,831.783806 99.733287,1696.927925 -56.099974,2524.26369c-155.833261,827.335764 -452.955346,1565.710694 -856.044049,2123.939933c-163.10548,226.850129 -411.39981,479.276498 -611.905273,621.613834c-81.033296,57.824543 -244.138776,156.793471 -259.722102,156.793471c-5.194442,0 18.699991,-33.360313 52.983309,-74.504699z" id="svg_4"/>
  </g>
  <text fill="#000000" font-family="serif" font-size="24" id="svg_5" stroke="#000000" stroke-width="0" text-anchor="middle" transform="matrix(11.2512 0 0 -9.69124 -13019.6 5586.26)" x="1260.300011" xml:space="preserve" y="529.700046"/>
  <text fill="#ffffff" font-family="Sans-serif" font-size="20" font-style="italic" font-weight="bold" id="svg_7" stroke="#000000" stroke-dasharray="null" stroke-linecap="null" stroke-linejoin="null" stroke-width="0" text-anchor="middle" transform="rotate(21.8809 629.069 662.909) matrix(46.0545 0 0 41.9785 -8254.24 -10236.5)" x="192.886863" xml:space="preserve" y="266.397433">L</text>
 </g>
</svg>
